# xmcd CD database file
#
# Track frame offsets:
#	150
#	42175
#	68485
#	90407
#	128897
#	155306
#	210644
#	258959
#
# Disc length: 3920 seconds
#
# Revision: 0
# Processed by: cddbd v1.5.1PL0 Copyright (c) Steve Scherf et al.
# Submitted via: CDex 1.51
#
DISCID=5e0f4e08
DTITLE=Сборник - Jazz At The Old Fortress - April 1998
DYEAR=1998
DGENRE=Jazz
TTITLE0=О. Петтифорд - Блюз в чулане
TTITLE1=В. Янг - Прекрасная жизнь
TTITLE2=Б. Голсон - Я помню Клиффорда
TTITLE3=С. Манукян - Армения
TTITLE4=Ю. Кузнецов, С. Манукян - Импровизация
TTITLE5=Т. Армакост - Вибрации
TTITLE6=Т. Армакост - Печальное насвистывание в темном заброшенном доме
TTITLE7=Т. Монк - Rhythm-a-Nign
EXTD=YEAR: 1998
EXTT0=
EXTT1=
EXTT2=
EXTT3=
EXTT4=
EXTT5=
EXTT6=
EXTT7=
PLAYORDER=
